<svg width="25" height="30" viewBox="0 0 25 30" version="1.1" xmlns="http://www.w3.org/2000/svg" xmlns:xlink="http://www.w3.org/1999/xlink">
<title>icon-train</title>
<desc>Created using Figma</desc>
<g id="Canvas" transform="translate(-6684 -1725)">
<g id="icon-train">
<g id="Path 11.1">
<use xlink:href="#path0_fill" transform="translate(6684 1725)" fill="#FFFE4A"/>
</g>
<g id="Path 14.1">
<use xlink:href="#path1_fill" transform="translate(6686 1730)" fill="#262626"/>
</g>
<g id="Path 15.1">
<use xlink:href="#path2_fill" transform="translate(6686 1742)" fill="#262626"/>
</g>
<g id="Path 15.2">
<use xlink:href="#path3_fill" transform="translate(6702 1742)" fill="#262626"/>
</g>
</g>
</g>
<defs>
<path id="path0_fill" fill-rule="evenodd" d="M 4.15069 26.2309L 0.534697 21.507L 0 14.4319L 1.65843 4.1535L 7.51532 0L 17.1846 0L 23.3046 4.1535L 25 14.4319L 24.6205 21.507L 20.7923 26.2309L 18.9568 26.2309L 18.9568 30L 17.5999 30L 17.5999 26.2309L 7.72812 26.2309L 7.72812 30L 6.36263 30L 6.36263 26.2309L 4.15069 26.2309Z"/>
<path id="path1_fill" fill-rule="evenodd" d="M 1.49196 0L 0 9L 22 9L 20.5244 0L 1.49196 0Z"/>
<path id="path2_fill" fill-rule="evenodd" d="M 5 0L 5 3L 0 3L 0 1.5L 1.56145 0L 5 0Z"/>
<path id="path3_fill" fill-rule="evenodd" d="M 0 0L 3.43855 0L 5 1.5L 5 3L 0 3L 0 0Z"/>
</defs>
</svg>
