<svg width="25" height="28" viewBox="0 0 25 28" version="1.1" xmlns="http://www.w3.org/2000/svg" xmlns:xlink="http://www.w3.org/1999/xlink">
<title>icon-bus</title>
<desc>Created using Figma</desc>
<g id="Canvas" transform="translate(-6686 -1687)">
<g id="icon-bus">
<g id="Path 18">
<use xlink:href="#path0_fill" transform="translate(6686 1687)" fill="#FFFE4A"/>
</g>
<g id="Path 19">
<use xlink:href="#path1_fill" transform="translate(6687 1694)" fill="#262626"/>
</g>
<g id="Path 21">
<use xlink:href="#path2_fill" transform="translate(6690 1690)" fill="#262626"/>
</g>
<g id="Path 22">
<use xlink:href="#path3_fill" transform="translate(6689 1708)" fill="#262626"/>
</g>
<g id="Path 22">
<use xlink:href="#path3_fill" transform="translate(6704 1708)" fill="#262626"/>
</g>
</g>
</g>
<defs>
<path id="path0_fill" fill-rule="evenodd" d="M 5.95681 25.9439L 5.95681 28L 2.31949 28L 2.31949 25.9439L 0 25.9439L 0 0L 25 0L 25 25.9439L 22.8221 25.9439L 22.8221 28L 19.2743 28L 19.2743 25.9439L 5.95681 25.9439Z"/>
<path id="path1_fill" fill-rule="evenodd" d="M 0 8.83705L 10.9803 8.83705L 14.4938 12L 22 12L 22 0L 0 0L 0 8.83705Z"/>
<path id="path2_fill" fill-rule="evenodd" d="M 0 0L 0 2L 17 2L 17 0L 0 0Z"/>
<path id="path3_fill" fill-rule="evenodd" d="M 0 0L 0 2L 4 2L 4 0L 0 0Z"/>
</defs>
</svg>
