<svg width="25" height="28" viewBox="0 0 25 28" version="1.1" xmlns="http://www.w3.org/2000/svg" xmlns:xlink="http://www.w3.org/1999/xlink">
<title>Group 10</title>
<desc>Created using Figma</desc>
<g id="Canvas" transform="translate(-6682 -1997)">
<g id="Group 10">
<g id="Path 18">
<use xlink:href="#path0_fill" transform="translate(6682 1997)" fill="#FF3BFF"/>
</g>
<g id="Path 19">
<use xlink:href="#path1_fill" transform="translate(6683.8 2004)" fill="#FFFE4A"/>
</g>
<g id="Path 21">
<use xlink:href="#path2_fill" transform="translate(6686 2000)" fill="#FFFE4A"/>
</g>
<g id="Path 22">
<use xlink:href="#path3_fill" transform="translate(6685 2018)" fill="#FFFE4A"/>
</g>
<g id="Path 22">
<use xlink:href="#path4_fill" transform="translate(6700.2 2018)" fill="#FFFE4A"/>
</g>
</g>
</g>
<defs>
<path id="path0_fill" fill-rule="evenodd" d="M 5.95681 25.9439L 5.95681 28L 2.31949 28L 2.31949 25.9439L 0 25.9439L 0 0L 25 0L 25 25.9439L 22.8221 25.9439L 22.8221 28L 19.2743 28L 19.2743 25.9439L 5.95681 25.9439Z"/>
<path id="path1_fill" fill-rule="evenodd" d="M 0 8.83705L 10.7008 8.83705L 14.1249 12L 21.44 12L 21.44 0L 0 0L 0 8.83705Z"/>
<path id="path2_fill" fill-rule="evenodd" d="M 0 0L 0 2.00933L 16.9214 2.00933L 16.9214 0L 0 0Z"/>
<path id="path3_fill" fill-rule="evenodd" d="M 0 0L 0 1.73629L 3.67346 1.73629L 3.67346 0L 0 0Z"/>
<path id="path4_fill" fill-rule="evenodd" d="M 0 0L 0 1.73629L 3.67 1.73629L 3.67 0L 0 0Z"/>
</defs>
</svg>
