<svg width="25" height="30" viewBox="0 0 25 30" version="1.1" xmlns="http://www.w3.org/2000/svg" xmlns:xlink="http://www.w3.org/1999/xlink">
<title>Group 12</title>
<desc>Created using Figma</desc>
<g id="Canvas" transform="translate(-6613 -1985)">
<g id="Group 12">
<g id="Path 11">
<use xlink:href="#path0_fill" transform="translate(6613 1985)" fill="#FF3BFF"/>
</g>
<g id="Path 14">
<use xlink:href="#path1_fill" transform="translate(6614.5 1990)" fill="#FFFE4A"/>
</g>
<g id="Path 15">
<use xlink:href="#path2_fill" transform="translate(6615 2002)" fill="#FFFE4A"/>
</g>
<g id="Path 15">
<use xlink:href="#path3_fill" transform="translate(6630.7 2002)" fill="#FFFE4A"/>
</g>
</g>
</g>
<defs>
<path id="path0_fill" fill-rule="evenodd" d="M 4.15069 26.2309L 0.534697 21.507L 0 14.4319L 1.65843 4.1535L 7.51532 0L 17.1846 0L 23.3046 4.1535L 25 14.4319L 24.6205 21.507L 20.7923 26.2309L 18.9568 26.2309L 18.9568 30L 17.5999 30L 17.5999 26.2309L 7.72812 26.2309L 7.72812 30L 6.36263 30L 6.36263 26.2309L 4.15069 26.2309Z"/>
<path id="path1_fill" fill-rule="evenodd" d="M 1.48379 0L 0 9.24959L 21.8795 9.24959L 20.412 0L 1.48379 0Z"/>
<path id="path2_fill" fill-rule="evenodd" d="M 5.38697 0L 5.38697 2.7422L 0 2.7422L 0 1.3711L 1.6823 0L 5.38697 0Z"/>
<path id="path3_fill" fill-rule="evenodd" d="M 0 0L 3.70467 0L 5.38697 1.3711L 5.38697 2.7422L 0 2.7422L 0 0Z"/>
</defs>
</svg>
