<?xml version="1.0" encoding="UTF-8"?>
<svg width="348px" height="244px" viewBox="0 0 348 244" version="1.1" xmlns="http://www.w3.org/2000/svg" xmlns:xlink="http://www.w3.org/1999/xlink">
    <!-- Generator: Sketch 48.2 (47327) - http://www.bohemiancoding.com/sketch -->
    <title>Path 34</title>
    <desc>Created with Sketch.</desc>
    <defs></defs>
    <g id="Layout" stroke="none" stroke-width="1" fill="none" fill-rule="evenodd" transform="translate(-2632.000000, -374.000000)" fill-opacity="0.9">
        <path d="M2851.44843,374 L2892.16481,386.572453 L2903.33697,420.760402 L2903.33697,450.232502 L2949.5563,459.984243 L2980,502.313663 L2974.28329,537.438483 L2937.45834,574.043005 L2898.73917,589.398379 L2851.44843,577.307904 L2830.8848,605.454703 L2798.45258,618 L2742.4265,585.275566 L2698.74547,605.454703 L2657.41261,585.275566 L2632,537.438483 L2640.80098,489.88046 L2657.41261,474.625181 L2657.41261,420.760402 L2691.0594,386.572453 L2742.4265,386.572453 L2765.33522,403.483489 C2778.54698,383.82783 2788.08508,374 2793.94952,374 C2799.81395,374 2818.98026,374 2851.44843,374 Z" id="Path-34" fill="#FFFFFF"></path>
    </g>
</svg>