<?xml version="1.0" encoding="UTF-8"?>
<svg width="225px" height="158px" viewBox="0 0 225 158" version="1.1" xmlns="http://www.w3.org/2000/svg" xmlns:xlink="http://www.w3.org/1999/xlink">
    <!-- Generator: Sketch 48.1 (47250) - http://www.bohemiancoding.com/sketch -->
    <title>Path 34</title>
    <desc>Created with Sketch.</desc>
    <defs></defs>
    <g id="Layout" stroke="none" stroke-width="1" fill="none" fill-rule="evenodd" transform="translate(-3038.000000, -763.000000)">
        <path d="M3179.88476,763 L3206.21001,771.141179 L3213.43338,793.279277 L3213.43338,812.363669 L3243.31657,818.678321 L3263,846.088355 L3259.30385,868.833116 L3235.49461,892.536044 L3210.46067,902.479278 L3179.88476,894.6502 L3166.58931,912.876406 L3145.6202,921 L3109.39644,899.809588 L3081.1544,912.876406 L3054.43057,899.809588 L3038,868.833116 L3043.69029,838.037347 L3054.43057,828.158929 L3054.43057,793.279277 L3076.18496,771.141179 L3109.39644,771.141179 L3124.20811,782.091767 C3132.7502,769.363922 3138.91708,763 3142.70874,763 C3146.5004,763 3158.89241,763 3179.88476,763 Z" id="Path-34" fill="#E9E9E9"></path>
    </g>
</svg>