<?xml version="1.0" encoding="UTF-8"?>
<svg width="247px" height="177px" viewBox="0 0 247 177" version="1.1" xmlns="http://www.w3.org/2000/svg" xmlns:xlink="http://www.w3.org/1999/xlink">
    <!-- Generator: Sketch 48.2 (47327) - http://www.bohemiancoding.com/sketch -->
    <title>Path 34</title>
    <desc>Created with Sketch.</desc>
    <defs></defs>
    <g id="Layout" stroke="none" stroke-width="1" fill="none" fill-rule="evenodd" transform="translate(-2778.000000, -568.000000)" fill-opacity="0.9" opacity="0.7">
        <path d="M2937.0082,568 L2966.51052,577.120181 L2974.60566,601.920456 L2974.60566,623.299807 L2990.86052,626.733315 L3024.66135,648.317149 L3018.68519,691.938637 L2991,716.420227 L2971.27418,724.252103 L2937.0082,715.481553 L2922.10818,735.899518 L2898.6084,745 L2858.01296,721.261373 L2826.36251,735.899518 L2796.4135,721.261373 L2778,686.559883 L2784.37703,652.060826 L2796.4135,640.994496 L2796.4135,601.920456 L2820.79333,577.120181 L2858.01296,577.120181 L2874.61219,589.387613 C2884.18518,575.129204 2891.09631,568 2895.34557,568 C2899.59483,568 2913.48237,568 2937.0082,568 Z" id="Path-34" fill="#FFFFFF"></path>
    </g>
</svg>