<?xml version="1.0" encoding="UTF-8"?>
<svg width="255px" height="73px" viewBox="0 0 255 73" version="1.1" xmlns="http://www.w3.org/2000/svg" xmlns:xlink="http://www.w3.org/1999/xlink">
    <!-- Generator: Sketch 47.1 (45422) - http://www.bohemiancoding.com/sketch -->
    <title>Artboard</title>
    <desc>Created with Sketch.</desc>
    <defs></defs>
    <g id="Page-1" stroke="none" stroke-width="1" fill="none" fill-rule="evenodd">
        <g id="Artboard" stroke="#DDDDDD" fill="#F0F0F0">
            <path d="M43.162182,15.9127809 C42.7878624,11.9550514 43.6987128,9.98415645 45.8947331,10.0000959 C48.0907534,10.0160354 49.7921637,13.2546865 50.9989639,19.7160493 C51.0323205,24.3583929 50.2602289,26.3034704 48.6826893,25.5512818 C46.3163799,24.4229989 50.7073731,28.4520107 50.2694304,30.1475706 C49.8314877,31.8431304 47.5719369,33.1177178 45.2470008,32.421505 C42.9220647,31.7252923 39.9168427,32.5282424 38.9605472,33.7439107 C38.0042517,34.959579 32.6223418,31.5806986 34.0925384,29.2079965 C35.5627349,26.8352943 34.6909468,24.725024 38.6233257,22.6213002 C42.5557047,20.5175764 35.0463298,24.0618287 32.896682,20.0234532 C30.7470343,15.9850777 32.7116554,13.6246148 36.1470295,11.5618781 C38.4372789,10.1867204 40.7756631,11.6370213 43.162182,15.9127809 Z" id="Path-3"></path>
            <path d="M18.807422,39.5489853 C18.0384545,35.3041608 15.9221883,34.030087 12.4586232,35.7267639 C7.26327562,38.2717792 9.00636271,43.4614155 10.732493,43.6760372 C12.4586232,43.8906589 15.1682507,43.1107288 15.5775274,41.8910309 C15.9868041,40.6713329 11.0045733,47.8429313 12.0138913,49.5377289 C13.0232092,51.2325264 14.5974986,50.5131114 15.5775274,48.4251539 C16.5575563,46.3371964 11.1683611,55.6069007 16.5575563,56.7040651 C21.9467515,57.8012294 24.0486301,55.6456153 25.471464,53.5497646 C26.4200199,52.1525307 26.8942979,51.2215009 26.8942979,50.7566751 C27.8523599,53.2795141 29.0050403,54.4539823 30.3523391,54.2800799 C32.3732873,54.0192261 33.5409976,52.0507953 33.510167,50.2379746 C33.4896133,49.0294274 32.9842477,48.1631725 31.9940705,47.6392098 C34.0288925,46.6158413 35.0306312,45.6994704 34.9992867,44.8900971 C34.95227,43.6760372 31.9940705,40.3992031 31.9940705,40.1082798 C31.9940705,39.8173564 29.9715807,39.4193102 29.4809882,40.3992031 C28.9903957,41.379096 28.0966927,34.9746482 23.3834592,35.7267639 C20.2413035,36.2281744 18.7159578,37.5022482 18.807422,39.5489853 Z" id="Path-4"></path>
            <path d="M18,25.2753221 C18.977616,22.2415593 20.7802494,22.2415593 23.4079002,25.2753221 C26.0355509,28.3090848 25.4106347,30.2173108 21.5331516,31" id="Path-6"></path>
            <path d="M23.0416877,40 C19.1602615,46.5750202 20.8130323,48.5181593 28,45.8294172" id="Path-8"></path>
            <path d="M85.1322564,15.124636 C81,16.5482258 79.9669359,17.9024707 82.0330641,19.1873705 C85.1322564,21.1147203 85.0023736,19.0402418 85.7867564,18.8013869 C86.5711392,18.562532 89.6824591,17.5850982 88.8640407,16.1068396 C88.3184285,15.1213339 87.0745004,14.7939327 85.1322564,15.124636 Z" id="Path-10"></path>
            <path d="M105.95791,14.8091702 C107.554306,13.6109488 108.21472,12.5659912 107.939151,11.6742973 C107.525799,10.3367564 104.440621,9.49606886 104.409975,10.3367564 C104.37933,11.177444 101.68755,11.2467979 103.82273,13.3997066 C105.246183,14.8349791 105.95791,15.3048003 105.95791,14.8091702 Z" id="Path-12"></path>
            <path d="M112.386473,23.4995602 C114.71954,24.0485901 116.152504,23.5842352 116.685366,22.1064958 C117.48466,19.8898866 116.591603,16.7638233 115.886073,17.0141454 C115.180543,17.2644674 111.741659,17.2230893 110.307157,20.3613248 C108.872656,23.4995602 106.660764,21.4595836 107.043887,23.4995602 C107.42701,25.5395368 109.091693,29.0096078 110.739083,28.99998 C112.386473,28.9903522 113.57965,26.8081809 113.556977,26.2560652 C113.541863,25.8879881 113.151695,24.9691531 112.386473,23.4995602 Z" id="Path-14"></path>
            <path d="M87.3492944,28.7752934 C86.1773208,25.8677885 86.3645513,24.2849287 87.9109859,24.0267143 C90.2306379,23.6393925 92.0687363,27.5725965 91.9980263,28.7752934 C91.9508863,29.5770914 91.0501098,29.9779904 89.2956969,29.9779904 C91.3226336,31.6867482 91.8293678,33.1974016 90.8158995,34.5099508 C89.2956969,36.4787745 88.3903637,36.2029096 87.3492944,35.3564302 C86.6552481,34.7921106 86.0644265,33.6166916 85.5768293,31.8301732 C82.5427038,31.8560934 81.4389019,30.8378001 82.2654237,28.7752934 C83.5052065,25.6815334 84.1981649,26.4117422 84.8874971,26.8031371 C85.3470519,27.064067 86.167651,27.7214525 87.3492944,28.7752934 Z" id="Path-16"></path>
            <path d="M89.9938753,46.6623505 C91.5225977,46.5282019 92.1776236,45.8363109 91.958953,44.5866775 C91.630947,42.7122273 88.0916623,39.8913543 87.1675507,40.0032281 C86.2434391,40.115102 81.5640839,39.9394075 81.4368753,41.9373694 C81.3096666,43.9353314 81.2774947,46.6623505 82.9678165,46.6623505 C84.0946977,46.6623505 85.4946091,46.6623505 87.1675507,46.6623505 L81.4368753,47.1676599 C79.3724466,49.0157059 79.5325668,50.0813857 81.9172358,50.3646993 C84.3019048,50.648013 85.6628262,50.5063562 86,49.9397288 C86.6274918,50.9500974 87.2903218,51.6020692 87.9884902,51.8956442 C89.0357427,52.3360068 90.5899809,51.2979826 90.8784191,50.3646993 C91.0707112,49.7425105 90.7758633,48.5083942 89.9938753,46.6623505 Z" id="Path-18"></path>
            <path d="M108.54433,53 C110.325063,55.0519606 110.472007,56.5627755 108.985162,57.5324446 C106.754895,58.9869482 104.81641,56.7139904 105.01388,55.2662223 C105.145526,54.3010435 106.322343,53.5456361 108.54433,53 Z" id="Path-20"></path>
            <path d="M111.213035,45.3536119 C109.498674,42.1749701 109.910068,40.7369112 112.447216,41.0394355 C116.252938,41.4932218 117.389893,43.6976502 116.888284,44.7198954 C116.386674,45.7421406 113.588049,46.7964488 113.588049,46.6040705 C113.588049,46.4758184 114.031881,46.8261228 114.919546,47.6549839 C116.023828,49.3765806 115.199717,50.1502429 112.447216,49.9759708 C108.318463,49.7145628 107.417233,46.6912066 108.318463,46.0224093 C108.919283,45.5765444 109.88414,45.3536119 111.213035,45.3536119 Z" id="Path-22"></path>
            <path d="M97,20 C97.2014495,22.3364972 98.5347829,23.3081896 101,22.9150772" id="Path-24"></path>
            <path d="M73,28 C75.3104446,31.1488764 77.3104446,31.8188972 79,30.0100623" id="Path-26"></path>
            <path d="M153.409295,26.5951245 C155.316786,23.7598555 156.702156,23.2478133 157.565407,25.0589978 C158.860283,27.7757745 156.991909,31.8401962 155.487351,31.9921126 C153.982793,32.1440289 150.545117,30.0758995 151.050192,27.9960563 C151.386909,26.6094941 152.173277,26.1425169 153.409295,26.5951245 Z" id="Path-28"></path>
            <path d="M146.159496,32 C149.135553,31.8812619 149.773051,31.1776727 148.07199,29.8892323 C145.520398,27.9565718 144.773186,29.6723374 145.056573,30.3764543 C145.245498,30.8458656 145.613139,31.3870475 146.159496,32 Z" id="Path-30"></path>
            <path d="M176.354744,20.6262902 C177.051392,21.1245699 177.565596,21.1245699 177.897355,20.6262902 C178.394995,19.8788706 176.953171,16.6113636 176.354744,17.0382987 C175.756317,17.4652339 174.538116,17.3737098 175.183437,19 C175.613651,20.0841935 176.004087,20.6262902 176.354744,20.6262902 Z" id="Path-32"></path>
            <path d="M174,31 C175.919036,29.7018942 176.45706,29.0356493 175.614071,29.0012656 C174.771082,28.9668818 174.233058,29.6331266 174,31 Z" id="Path-34"></path>
            <path d="M166.644622,34 C169.096303,33.7998724 170.204453,33.0995533 169.969072,31.8990426 C169.616,30.0982765 167.604978,28.641241 166.644622,29.0781607 C165.684267,29.5150804 161.726519,29.7980852 163.413458,31.8990426 C165.100398,34 164.469329,34.6122223 166.112042,33.2556324 C167.207183,32.3512392 167.38471,32.5993617 166.644622,34 Z" id="Path-36"></path>
            <path d="M159.220937,51 C162,50.8214953 162.694766,50.0042095 161.305234,48.5481425 C159.220937,46.364042 157.998325,46.7976694 157.181613,47.9713216 C156.637138,48.7537564 157.316913,49.7633159 159.220937,51 Z" id="Path-38"></path>
            <path d="M171.327867,42 C168.224044,38.5082291 168.224044,36.539561 171.327867,36.0939958 C174.43169,35.6484306 175.567913,36.786939 174.736537,39.509521 L171.327867,42 Z" id="Path-40"></path>
            <path d="M172,49.7437242 C171.409647,48.6739734 171.212863,47.8312039 171.409647,47.2154158 C171.704824,46.2917337 166.390001,48.4853191 170.680216,51" id="Path-42"></path>
            <path d="M224.22316,28 C226.155344,27.3173739 226.511696,26.7121713 225.292217,26.1843923 C224.072738,25.6566132 223.716385,26.2618158 224.22316,28 Z" id="Path-44"></path>
            <path d="M230.666775,33 C234.25697,32.8460184 234.946933,32.1290477 232.736664,30.8490876 C229.421261,28.9291475 228.840949,30.8189645 229.032618,31.1491566 C229.160397,31.3692847 229.705116,31.9862325 230.666775,33 Z" id="Path-46"></path>
            <path d="M226.81929,41.6879435 C227.161729,39.866482 227.017486,38.9707437 226.386561,39.0007284 C225.440173,39.0457055 222.125999,41.0921645 225.440173,43" id="Path-48"></path>
            <path d="M215.931818,34 C218.463118,33.8988633 218.670827,33.1832809 216.554945,31.8532527 C213.381122,29.8582105 213.789004,31.8532527 214.497238,32.8635664 C214.969394,33.5371089 215.447587,33.9159201 215.931818,34 Z" id="Path-50"></path>
        </g>
        <path d="M28.6620854,21.366163 C35.4539576,20.6493709 36.2764266,23.3280522 31.1294926,29.4022069 C29.4866476,31.3410105 32.1117734,34.2283356 28.1336018,35.6478717 C22.8700056,37.5260876 19.1365541,32.2570856 18.9407619,31.3556781 C18.6920446,30.210608 17.5893292,33.8562858 13.3784865,31.0491195 C9.16764376,28.2419532 13.4490155,24.6242631 14.569643,24.2718047 C15.6902705,23.9193463 11.4036744,20.8759638 12.7730192,18.8011423 C14.1423641,16.7263208 17.5354062,15.7103673 21.0995465,18.8011423 C24.6636868,21.8919173 20.2828654,17.4534413 21.5294376,14.4537196 C22.7760097,11.453998 28.5806586,10.3057559 29.2374367,14.4537196 C29.6752887,17.2190288 29.4835049,19.5231766 28.6620854,21.366163 Z" id="Path-2" stroke="#DDDDDD" fill="#F0F0F0"></path>
        <path d="M44.0167433,37.978854 C38.8259476,36.5628824 35.7632969,36.4189757 34.8287912,37.5471337 C33.4270327,39.2393706 34.3871726,44.45009 38.0179631,44.668615 C40.4384901,44.8142984 41.2518045,45.0790158 40.4579061,45.4627672 C37.8493105,44.583337 36.4471713,45.2516024 36.2514885,47.4675636 C35.9579644,50.7915053 37.771525,52.2899631 39.1147156,51.925247 C40.0101759,51.6821029 40.9680518,51.0502583 41.9883432,50.0297131 C40.9533312,52.0553214 40.6945782,53.4971809 41.2120842,54.3552916 C41.9883432,55.6424577 44.0186468,57.3560142 45.7698932,56.9829226 C47.5211395,56.609831 50.602191,56.1069187 50.6657689,54.8258439 C50.7081541,53.9717941 50.7293467,53.3248481 50.7293467,52.8850061 C50.8643704,53.8651965 51.5938025,54.3552916 52.9176433,54.3552916 C54.9034044,54.3552916 55.6758563,49.0657662 55.6164662,48.2666649 C55.5570761,47.4675636 60.763227,47.721875 58.7222635,41.3420084 C57.3616213,37.088764 55.4267478,35.5339618 52.9176433,36.6776018 C51.9377067,33.4243444 50.09636,32.3440284 47.3936031,33.4366539 C44.6908462,34.5292793 43.5652263,36.043346 44.0167433,37.978854 Z" id="Path-5" stroke="#DDDDDD" fill="#F0F0F0"></path>
        <path d="M40.3672982,19.0105717 C46.4162046,22.0308371 47.4471557,25.106178 43.4601515,28.2365943" id="Path-7" stroke="#DDDDDD"></path>
        <path d="M44.7065821,45.4509653 C48.3339463,50.6349083 50.093822,48.9478744 49.9862091,40.3898633" id="Path-9" stroke="#DDDDDD" fill="#F0F0F0"></path>
        <path d="M79.1433189,28.9477526 C80.9333972,26.2787517 80.6459644,24.8432372 78.2810204,24.6412094 C74.7336044,24.3381676 72.7988579,26.1906817 73.4057028,27.5692172" id="Path-11" stroke="#DDDDDD" fill="#F0F0F0"></path>
        <path d="M99.5339178,25.7749511 C102.274745,25.2866325 103.73894,24.4726837 103.926501,23.3331045 C104.207842,21.6237358 103.328031,16.574055 101.224632,17.0019682 C99.1212328,17.4298815 96.550327,16.2991854 95.3537689,19.2150106 C94.1572108,22.1308358 93.8910975,24.5624033 94.6224332,24.8730592 C95.1099903,25.0801631 96.7471519,25.3807937 99.5339178,25.7749511 Z" id="Path-13" stroke="#DDDDDD" fill="#F0F0F0"></path>
        <path d="M115.563152,38.6995299 C119.12605,37.4023386 120.642147,35.920505 120.111443,34.2540291 C119.315388,31.7543153 116.211113,30.7066131 115.563152,31.7543153 C114.915191,32.8020174 112.191622,33.1115312 113.877387,36.8671932 C115.00123,39.3709679 115.563152,39.9817468 115.563152,38.6995299 Z" id="Path-15" stroke="#DDDDDD" fill="#F0F0F0"></path>
        <path d="M104.33081,33.9753525 C106.554385,31.6502557 107.963758,31.2795752 108.558928,32.8633111 C109.451683,35.2389148 110.25916,37.8764441 106.444869,39.7921553 C103.902008,41.0692962 102.404693,40.674885 101.952922,38.6089219 C102.810525,41.8190327 102.540351,43.6622829 101.1424,44.1386727 C99.0454724,44.8532573 97.7099567,45.4551531 96.7357307,44.1386727 C95.7615047,42.8221923 96.9135203,39.7921553 97.2112322,39.7921553 C97.508944,39.7921553 94.5028916,41.6949226 93.581203,40.743539 C92.6595144,39.7921553 91.794551,35.4829472 94.5028916,35.159728 C96.308452,34.9442486 97.8437113,36.0272001 99.1086695,38.4085827 C97.4020926,33.9178366 97.1745575,31.5214503 98.4260641,31.2194237 C100.303324,30.7663839 102.579183,29.698885 103.018517,30.260426 C103.311407,30.6347866 103.748838,31.8730955 104.33081,33.9753525 Z" id="Path-17" stroke="#DDDDDD" fill="#F0F0F0"></path>
        <path d="M99.1406488,54.3922201 C101.89239,53.4361411 103.166993,52.4202913 102.964457,51.3446707 C102.761922,50.2690501 101.07235,49.7312398 97.8957411,49.7312398 C94.5336019,51.165739 93.7748553,52.7193991 95.6195015,54.3922201 C97.4641477,56.0650411 98.6378634,56.0650411 99.1406488,54.3922201 Z" id="Path-19" stroke="#DDDDDD" fill="#F0F0F0"></path>
        <path d="M88.0990405,55.265559 C90.1076439,55.0092172 91.0628346,55.3177157 90.9646125,56.1910547 C90.8172794,57.5010631 91.1077579,58.7973661 89.1330373,58.8697002 C87.1583166,58.9420343 85.8026235,56.1910547 86.5389084,56.1910547 C87.029765,56.1910547 87.549809,55.8825561 88.0990405,55.265559 Z" id="Path-21" stroke="#DDDDDD" fill="#F0F0F0"></path>
        <path d="M79.5982623,34.1828371 C81.3507776,36.1043858 81.6720933,37.3175681 80.5622092,37.8223839 C78.897383,38.5796076 76.8548968,38.9005425 76.5659411,36.5416898 C76.2769855,34.1828371 76.5236828,34.7032619 77.4301431,34.1828371 C78.03445,33.8358873 78.7571564,33.8358873 79.5982623,34.1828371 Z" id="Path-23" stroke="#DDDDDD" fill="#F0F0F0"></path>
        <path d="M113.462418,20.3278135 C111.070063,20.8884661 109.830485,22.6129362 109.743684,25.5012236" id="Path-25" stroke="#DDDDDD" fill="#F0F0F0"></path>
        <path d="M103.365721,33.9989563 C101.489603,36.996887 100.291395,38.7469912 99.7710975,39.249269" id="Path-27" stroke="#DDDDDD" fill="#F0F0F0"></path>
        <path d="M154.215063,21.6035584 C155.572913,21.1127018 155.912376,20.5325063 155.23345,19.8629718 C154.215063,18.8586701 152.768761,19.2437539 153.013555,19.8629718 C153.176751,20.2757837 153.577254,20.8559792 154.215063,21.6035584 Z" id="Path-29" stroke="#DDDDDD" fill="#F0F0F0"></path>
        <path d="M165.139794,21.7337597 C162.834494,20.0624616 162.436149,18.8995325 163.944759,18.2449724 C166.207674,17.2631324 167.563748,19.1609504 167.546997,19.9893661 C167.530245,20.8177818 167.719456,23.3555662 166.429625,23.2539177 C165.569738,23.1861521 165.139794,22.6794328 165.139794,21.7337597 Z" id="Path-31" stroke="#DDDDDD" fill="#F0F0F0"></path>
        <path d="M173.195147,26.7990495 C170.835786,25.9683496 170.175135,24.463166 171.213193,22.2834988 C172.770279,19.013998 172.613048,20.4979889 173.596791,21.3907439 C174.25262,21.9859138 174.916952,23.1167368 175.589786,24.7832126 C174.305622,25.8969038 173.496897,26.1753266 173.163611,25.618481" id="Path-33" stroke="#DDDDDD" fill="#F0F0F0"></path>
        <path d="M179.288342,32.5336199 C180.33046,31.9935254 180.47957,31.5125671 179.735671,31.0907452 C178.991772,30.6689232 178.619823,30.9094024 178.619823,31.8121825 L179.288342,32.5336199 Z" id="Path-35" stroke="#DDDDDD" fill="#F0F0F0"></path>
        <path d="M148.381889,44.9727989 C146.008189,43.0388138 145.216956,41.5209401 146.008189,40.4191777 C147.195039,38.7665341 148.253592,37.3251822 149.519057,37.7481463 C150.784523,38.1711104 153.616212,43.2923638 152.603535,44.9727989 C151.590858,46.653234 150.229454,48.7513033 147.815399,48.1120984 C145.401344,47.4728935 144.794499,45.7859864 145.401344,45.3793926 C145.805907,45.1083302 146.799423,44.9727989 148.381889,44.9727989 Z" id="Path-37" stroke="#DDDDDD" fill="#F0F0F0"></path>
        <path d="M162.290592,36.8039961 C165.148931,36.5100912 166.602466,37.0302622 166.651196,38.3645089 C166.724291,40.3658789 163.493242,42.5225768 161.252027,41.7010139 C159.010813,40.8794509 156.769598,37.5410424 159.010813,35.0382829 C160.504956,33.3697766 161.598216,33.9583476 162.290592,36.8039961 Z" id="Path-39" stroke="#DDDDDD" fill="#F0F0F0"></path>
        <path d="M175.756916,45.2194962 C174.873424,43.6400751 174.873424,42.6394535 175.756916,42.2176316 C177.082152,41.5848986 177.590014,42.0876205 177.545852,42.8503645 C177.516411,43.3588604 176.920098,44.148571 175.756916,45.2194962 Z" id="Path-41" stroke="#DDDDDD" fill="#F0F0F0"></path>
        <path d="M169.595955,51.5213182 C168.438229,52.0672502 168.05232,52.6169893 168.438229,53.1705354 C168.824137,53.7240815 169.210046,53.1743425 169.595955,51.5213182 Z" id="Path-43" stroke="#DDDDDD" fill="#F0F0F0"></path>
        <path d="M233.99417,26.7873205 C235.452945,25.747045 235.615957,25.1665626 234.483208,25.0458733 C233.350459,24.9251841 233.187447,25.5056665 233.99417,26.7873205 Z" id="Path-45" stroke="#DDDDDD" fill="#F0F0F0"></path>
        <path d="M238.368332,31.965631 C237.561608,32.4582739 237.424031,33.0888031 237.955599,33.8572189 C238.487167,34.6256346 238.624745,33.9951053 238.368332,31.965631 Z" id="Path-47" stroke="#DDDDDD" fill="#F0F0F0"></path>
        <path d="M219.301077,46.5629555 C220.677675,44.1878898 220.453185,43.3962012 218.627606,44.1878898 C216.802026,44.9795783 216.671245,46.0483785 218.235263,47.3942903" id="Path-49" stroke="#DDDDDD" fill="#F0F0F0"></path>
        <path d="M235.834784,44.9636169 C234.104767,45.9711456 233.492671,46.7645848 233.998495,47.3439344 C234.504319,47.9232841 235.116415,47.1298449 235.834784,44.9636169 Z" id="Path-51" stroke="#DDDDDD" fill="#F0F0F0"></path>
    </g>
</svg>