<svg width="255" height="73" viewBox="0 0 255 73" xmlns="http://www.w3.org/2000/svg"><g fill="none" fill-rule="evenodd" stroke="#DDD"><g fill="#F0F0F0"><path d="M43.2 16c-.4-4 .5-6 2.7-6 2 0 3.8 3.3 5 9.7 0 4.7-.7 6.6-2.3 6-2.4-1.3 2 2.8 1.6 4.4-.5 1.8-2.7 3-5 2.4-2.4-.7-5.4 0-6.3 1.3-1 1.3-6.4-2-5-4.5 1.6-2.4.7-4.5 4.6-6.6 4-2-3.6 1.5-5.7-2.6-2.3-4-.3-6.4 3-8.4 2.4-1.4 4.8 0 7.2 4.3zM18.8 39.5c-.8-4.2-3-5.5-6.3-3.8-5.2 2.6-3.5 7.8-1.8 8 1.8.2 4.5-.6 5-1.8.3-1.3-4.7 5.8-3.7 7.5 1 1.7 2.6 1 3.6-1 1-2.2-4.4 7 1 8.2 5.3 1 7.4-1 9-3.2.8-1.3 1.3-2.3 1.3-2.7 1 2.5 2 3.7 3.4 3.5 2-.3 3-2.2 3-4 0-1.3-.4-2-1.4-2.7 2-1 3-2 3-2.7 0-1.3-3-4.6-3-5 0-.2-2-.6-2.5.4s-1.4-5.4-6-4.7c-3.3.5-4.8 1.8-4.7 3.8zM18 25.3c1-3 2.8-3 5.4 0 2.6 3 2 5-2 5.7M23 40c-3.8 6.6-2.2 8.5 5 5.8M85 15c-4 1.5-5 3-3 4.2 3 2 3-.2 3.8-.4.8-.2 4-1.2 3-2.7-.5-1-1.7-1.2-3.7-1zM106 14.8c1.6-1.2 2.2-2.2 2-3-.5-1.5-3.6-2.3-3.6-1.5 0 1-2.7 1-.6 3 1.4 1.5 2.2 2 2.2 1.5zM112.4 23.5c2.3.5 3.8 0 4.3-1.4.8-2 0-5.2-.8-5-.8.3-4.3.2-5.7 3.4-1.4 3-3.6 1-3.3 3 .4 2 2 5.6 3.7 5.6 1.7 0 3-2.2 3-2.7l-1.3-2.8zM87.3 28.8c-1-3-1-4.5.6-4.8 2.2-.4 4 3.6 4 4.8 0 .8-1 1.2-2.7 1.2 2 1.7 2.5 3.2 1.5 4.5-1.5 2-2.4 1.7-3.5 1-.6-.7-1.2-2-1.7-3.7-3 0-4.2-1-3.3-3 1.2-3 2-2.4 2.6-2l2.3 2zM90 46.7c1.5-.2 2.2-1 2-2-.4-2-4-4.8-4.8-4.7-1 0-5.6 0-5.8 2 0 2 0 4.7 1.6 4.7h4.2l-5.8.5c-2 1.8-2 3 .5 3.2 2.3.2 3.7 0 4-.5.6 1 1.3 1.6 2 2 1 .3 2.6-.7 3-1.6 0-.7-.2-2-1-3.7zM108.5 53c1.8 2 2 3.6.5 4.5-2.2 1.5-4.2-.8-4-2.2 0-1 1.3-1.8 3.5-2.3zM111.2 45.4c-1.7-3.2-1.3-4.7 1.2-4.4 4 .5 5 2.7 4.5 3.7-.6 1-3.4 2-3.4 2 0-.2.4 0 1.3 1 1 1.7.2 2.5-2.6 2.3-4-.3-5-3.3-4-4 .5-.4 1.5-.6 2.8-.6zM97 20c.2 2.3 1.5 3.3 4 3M73 28c2.3 3 4.3 3.8 6 2M153.4 26.6c2-2.8 3.3-3.4 4.2-1.5 1.3 2.8-.6 6.8-2 7-1.6 0-5-2-4.5-4 .4-1.4 1.2-2 2.4-1.4zM146.2 32c3 0 3.6-.8 2-2-2.7-2-3.4-.3-3 .4 0 .4.4 1 1 1.6zM176.4 20.6c.7.5 1.2.5 1.5 0 .4-.7-1-4-1.6-3.6-.6.5-2 .4-1.2 2 .4 1 .8 1.6 1.2 1.6zM174 31c2-1.3 2.5-2 1.6-2-.8 0-1.4.6-1.6 2zM166.6 34c2.5-.2 3.6-1 3.4-2-.4-2-2.4-3.4-3.4-3-1 .5-5 .8-3.2 3 1.7 2 1 2.6 2.7 1.3 1.2-1 1.4-.7.6.7zM159.2 51c2.8-.2 3.5-1 2-2.5-2-2-3.2-1.7-4-.5-.6.8 0 1.8 2 3zM171.3 42c-3-3.5-3-5.5 0-6 3-.4 4.3.8 3.4 3.5l-3.4 2.5zM172 49.7c-.6-1-.8-2-.6-2.5.3-1-5 1.3-.7 3.8M224.2 28c2-.7 2.3-1.3 1-1.8-1-.5-1.5 0-1 1.8zM230.7 33c3.6-.2 4.2-1 2-2.2-3.3-2-4 0-3.7.3.2.4.7 1 1.7 2zM226.8 41.7c.4-1.8.2-2.7-.4-2.7-1 0-4.3 2-1 4M216 34c2.5 0 2.7-.8.6-2-3.2-2-2.8 0-2 1 .4.5.8 1 1.3 1z"/></g><path d="M28.7 21.4c6.8-.8 7.6 2 2.4 8-1.5 2 1 4.8-3 6.2-5 2-9-3.3-9-4.2-.3-1.2-1.4 2.5-5.6-.4-4.2-2.8 0-6.4 1.2-6.7 1-.4-3.2-3.4-1.8-5.5 1.3-2 4.7-3 8.3 0 3.7 3-.7-1.3.5-4.3 1.3-3 7-4.2 7.7 0 .5 2.7.3 5-.5 7zM44 38c-5.2-1.4-8.2-1.6-9.2-.5-1.4 1.7-.4 7 3.2 7.2 2.4 0 3.3.4 2.5.8-2.7-1-4-.2-4.2 2-.3 3.3 1.5 4.8 2.8 4.4 1-.3 2-1 3-2-1 2-1.3 3.5-.8 4.4.8 1.2 2.8 3 4.6 2.6 1.7-.4 4.8-1 5-2.2v-2c0 1 .8 1.6 2 1.6 2 0 3-5.3 2.8-6 0-1 5.2-.7 3-7-1.2-4.3-3.2-6-5.7-4.7-1-3.3-3-4.4-5.6-3.3-2.7 1-3.8 2.6-3.4 4.6z" fill="#F0F0F0"/><path d="M40.4 19c6 3 7 6 3 9.2"/><path d="M44.7 45.5c3.6 5 5.4 3.4 5.3-5M79 29c2-2.7 1.6-4.2-.7-4.4-3.6-.3-5.5 1.6-5 3M99.5 25.8c2.8-.5 4.2-1.3 4.4-2.5.2-1.7-.7-6.7-2.8-6.3-2 .4-4.6-.7-5.8 2.2-1.2 3-1.5 5.4-.8 5.7l5 .8zM115.6 38.7c3.5-1.3 5-2.8 4.5-4.4-.7-2.5-3.8-3.6-4.4-2.5-.7 1-3.4 1.3-1.7 5 1 2.6 1.6 3.2 1.6 2zM104.3 34c2.3-2.3 3.7-2.7 4.3-1 1 2.2 1.7 5-2.2 6.8-2.5 1.3-4 1-4.4-1.2.8 3.2.5 5-1 5.5-2 1-3.3 1.5-4.3 0-1-1.2.2-4.2.5-4.2s-2.7 2-3.6 1c-1-1-1.8-5.3 1-5.6 1.7-.3 3.2.8 4.5 3.2-1.6-4.5-1.8-7-.6-7.2 2-.4 4.2-1.5 4.6-1 .3.4.7 1.7 1.3 3.8zM99 54.4c3-1 4.2-2 4-3-.2-1-2-1.7-5-1.7-3.5 1.5-4.2 3-2.4 4.7 2 1.7 3 1.7 3.5 0zM88 55.3c2-.3 3 0 3 1-.2 1.2 0 2.5-2 2.6-1.8 0-3.2-2.8-2.5-2.8.5 0 1-.3 1.6-1zM79.6 34.2c1.8 2 2 3 1 3.6-1.7.8-3.7 1-4-1.3-.3-2.3 0-1.8.8-2.3.6-.4 1.4-.4 2.2 0zM113.5 20.3c-2.4.6-3.7 2.3-3.8 5.2M103.4 34c-2 3-3 4.7-3.6 5.2M154.2 21.6c1.4-.5 1.7-1 1-1.7-1-1-2.4-.8-2.2 0 .2.3.6 1 1.2 1.6zM165 21.7c-2.2-1.6-2.6-2.8-1-3.5 2.2-1 3.6 1 3.5 1.8 0 .8.2 3.4-1 3.3-1 0-1.4-.6-1.4-1.6zM173.2 26.8c-2.4-.8-3-2.3-2-4.5 1.6-3.3 1.4-1.8 2.4-1 .7.7 1.3 1.8 2 3.5-1.3 1-2 1.4-2.4.8M179.3 32.5c1-.5 1.2-1 .4-1.4-.7-.3-1 0-1 .8l.6.7zM148.4 45c-2.4-2-3.2-3.5-2.4-4.6 1.2-1.6 2.3-3 3.5-2.7 1.3.5 4 5.6 3 7.3-1 1.7-2.3 3.8-4.7 3-2.4-.5-3-2.2-2.4-2.6.4-.3 1.4-.4 3-.4zM162.3 36.8c2.8-.3 4.3.2 4.4 1.6 0 2-3.2 4-5.4 3.3-2.3-.8-4.5-4.2-2.3-6.7 1.5-1.6 2.6-1 3.3 1.8zM175.8 45.2c-1-1.6-1-2.6 0-3 1.3-.6 1.8 0 1.7.7 0 .4-.6 1-1.7 2.2zM169.6 51.5c-1.2.6-1.5 1-1.2 1.7.4.5.8 0 1.2-1.7zM234 26.8c1.5-1 1.6-1.6.5-1.8-1 0-1.3.5-.5 1.8zM238.4 32c-.8.5-1 1-.4 2 .5.6.6 0 .4-2zM219.3 46.6c1.4-2.4 1.2-3.2-.7-2.4-1.8.8-2 1.8-.4 3.2M235.8 45c-1.7 1-2.3 1.8-1.8 2.3.5.6 1-.2 1.8-2.3z" fill="#F0F0F0"/></g></svg>