<?xml version="1.0" encoding="UTF-8"?>
<svg width="255px" height="69px" viewBox="0 0 255 69" version="1.1" xmlns="http://www.w3.org/2000/svg" xmlns:xlink="http://www.w3.org/1999/xlink">
    <!-- Generator: Sketch 47.1 (45422) - http://www.bohemiancoding.com/sketch -->
    <title>Artboard 2</title>
    <desc>Created with Sketch.</desc>
    <defs>
        <linearGradient x1="50%" y1="0%" x2="50%" y2="100%" id="linearGradient-1">
            <stop stop-color="#FFFFFF" stop-opacity="0.5" offset="0%"></stop>
            <stop stop-color="#000000" stop-opacity="0.5" offset="100%"></stop>
        </linearGradient>
        <polygon id="path-2" points="31.9656164 22.4180711 31.9656164 14.4273104 25.9842566 13.2831579 24.4222866 20.5163552 18.8049019 17.8506145 15.2464531 22.4180711 18.0155713 25.342794 15.2464531 29.3632111 18.0155713 33.0729572 22.1469039 32.0294902 25.9842566 36.513491 31.9656164 37.2968989 35.0082543 32.0294902 34.2291538 30.3662963 37.3417869 25.342794 35.6629788 21.7391176"></polygon>
        <polyline id="path-3" points="21.1088211 26.2198878 24.7421109 24.256253 27.2334019 28.4656572 25.4889059 31.6585156"></polyline>
        <polygon id="path-4" points="21.9945297 39.5830501 18.071029 35.8060009 13.1218293 39.0182426 13.1218293 43.9415979 18.071029 43.9415979 15.744496 47.9846289 15.744496 51.643763 18.071029 49.9654933 18.9965811 56.5520424 23.4041255 57.9217948 26.7800483 56.5520424 28.9703599 53.2811125 29.9685993 51.643763 33.2572973 54.971766 35.6231353 53.2811125 36.519074 49.9654933 35.6231353 47.9846289 38.124118 44.8897638 36.519074 41.5666066 33.2572973 40.5742899 32.6827981 41.5666066 28.9703599 38.114766 24.019545 38.114766"></polygon>
        <polyline id="path-5" points="25.6078978 41.1326363 23.8122514 44.7255442 25.6078978 48.7438077 28.1901826 49.502448 31.7281712 47.9555539"></polyline>
        <polygon id="path-6" points="47.4254044 38.8712527 41.2588265 37.5801103 37.584078 38.8712527 37.584078 42.7112975 42.5047412 46.1173721 39.3662637 47.830101 39.3662637 50.9825775 42.5047412 53.0705884 45.1252542 50.9825775 43.8136516 54.893156 46.159568 57.3817549 50.5622666 58.252926 53.24416 56.7243383 53.24416 53.885225 55.888902 54.893156 58.4087295 52.2268769 58.4087295 49.0894763 61.586512 47.830101 61.586512 41.4481532 58.4087295 37.5801103 55.2492535 37.5801103 53.24416 34.4362485 49.585295 34.4362485"></polygon>
        <polyline id="path-7" points="45.9506592 47.4698949 48.2879608 50.028489 51.4932029 50.028489 52.5469 45.1439002 52.5469 41.0265667"></polyline>
        <polygon id="path-8" points="41.7385629 22.8315813 38.4724788 26.6253216 38.4724788 30.8638007 41.1220666 33.5779996 45.6512951 33.5779996 47.7586893 32.2114777 52.2448438 32.2114777 54.3592375 28.2047904 50.8643229 25.4084818 54.3592375 26.6253216 55.0748039 21.8284961 52.2448438 13.4393011 49.6770964 9.94815545 47.7586893 11.6038114 46.7736413 16.7662272 44.1883952 12.7377337 38.4724788 11.6038114 35.9763419 15.3280949 35.9763419 19.3005922 39.6882417 22.8315813"></polygon>
        <polyline id="path-9" points="43.1158532 19.6290313 46.8675964 22.0029457 48.257809 25.3901754 46.8675964 28.5701116 45.6868311 29.9533246"></polyline>
        <polygon id="path-10" points="89.1269346 20.1044603 91.0108826 17.2255035 87.5068148 16.4361729 84.4770991 18.2703166 85.1307466 20.710188 87.5068148 20.710188"></polygon>
        <polygon id="path-11" points="82.3174777 26.4804854 78.7864886 25.2948742 76.9789969 26.4804854 76.9789969 29.7987967 81.3095466 29.7987967 83.5176263 28.8113258"></polygon>
        <polygon id="path-12" points="90.8396636 30.0723165 88.3252203 27.723708 86.4191969 28.8980122 86.4191969 32.3363923 88.6294302 33.818137 89.9221879 36.5754098 93.4526386 36.5754098 94.6727089 34.6478494 93.4526386 31.4237624 95.3242028 30.0723165 95.3242028 27.723708 90.8716998 25.1780361"></polygon>
        <polyline id="path-13" points="103.109824 27.1018275 98.639822 27.1018275 97.0100104 22.7820462 98.639822 18.5209533 103.109824 17.6697039 107.03817 20.0872307 107.03817 24.1275695 103.878694 27.1018275"></polyline>
        <polyline id="path-14" points="99.8819677 20.7478778 101.873601 23.5907601 103.902385 23.5907601"></polyline>
        <path d="M108.914042,16.2999515 C109.349089,16.2999515 110.194954,15.5759497 111.451637,14.1279463 L109.561767,11.3760577 L107.069937,11.3760577 L106.193382,13.8380046 L107.069937,15.4799307 C107.864293,16.0266112 108.478995,16.2999515 108.914042,16.2999515 Z" id="path-15"></path>
        <path d="M118.882436,17.9238403 L116.449834,18.5914869 L113.692561,20.888945 L109.988737,24.0640354 L110.593927,27.5368746 L113.041067,30.318915 L115.346063,30.318915 L116.449834,27.5368746 L115.346063,25.0579674 C117.703645,24.3953461 118.882436,24.0640354 118.882436,24.0640354 C118.882436,24.0640354 119.276025,23.2294771 120.063202,21.5603606 L118.882436,17.9238403 Z" id="path-16"></path>
        <polyline id="path-17" points="115.918947 21.4677516 113.927314 23.6688317 112.627557 26.372262"></polyline>
        <polygon id="path-18" points="107.245464 34.8029157 105.249523 30.6204328 102.176195 31.6698225 100.986815 34.2246476 101.557545 38.3155984 99.5492213 36.1069803 96.1700679 37.7297923 96.1700679 40.6981276 99.5492213 41.4896119 100.285248 44.1978881 103.377959 45.3108119 105.249523 44.1978881 105.249523 40.6981276 108.065484 40.6981276 111.131275 39.2718406 112.034213 36.1069803 112.034213 34.2246476 109.631223 33.1494135"></polygon>
        <polyline id="path-19" points="105.600576 35.2885748 105.600576 37.124603 104.590492 38.5164308 102.707082 39.5577441"></polyline>
        <polygon id="path-20" points="93.2507293 47.250756 95.2235173 46.4183515 93.2507293 42.6316106 88.7882655 40.9463414 84.3597225 41.8622018 84.3597225 45.41742 86.1338318 47.250756 89.7916199 47.250756 84.3597225 47.250756 83.5429322 50.5722979 85.1215934 51.5969201 88.7882655 50.5722979 89.7916199 52.3006411 93.2507293 53.2730361 93.8273821 50.5722979"></polygon>
        <polygon id="path-21" points="81.9642711 39.0236268 84.3737215 37.2409027 83.1689963 34.6526952 80.2219288 34.6526952 80.2219288 38.4491277"></polygon>
        <polygon id="path-22" points="93.8058451 56.5843479 90.5639901 56.5843479 90.5639901 58.396147 92.1849176 59.8827375 93.2415761 59.1634022 93.8058451 57.4953625"></polygon>
        <polygon id="path-23" points="106.341449 51.7272188 102.619319 51.1301059 98.9930286 51.7272188 98.2494641 54.6374043 100.317553 56.6446515 102.619319 55.5888007 104.73102 53.8873787"></polygon>
        <polygon id="path-24" points="111.555553 53.5933988 109.975815 53.5933988 108.991037 55.0099941 108.991037 57.67735 111.555553 58.6077479 112.270581 57.67735 112.270581 55.0099941"></polygon>
        <polygon id="path-25" points="116.320073 42.4340088 113.527803 43.1258845 114.133531 46.2148269 111.841457 46.2148269 110.944441 48.209152 113.527803 50.8210501 116.320073 50.8210501 116.320073 48.209152 118.19433 47.2232964 119.368634 44.8079232 118.773675 43.1258845"></polygon>
        <polygon id="path-26" points="119.738532 32.6637545 117.394231 33.7244511 117.394231 36.7600895 118.566381 39.6864276 121.198201 38.1556862 122.283127 34.4001741"></polygon>
        <polygon id="path-27" points="168.113297 18.8079336 166.537867 19.8137109 167.325582 21.7418097 168.113297 24.0710349 170.224461 23.1971717 170.224461 19.8137109"></polygon>
        <polygon id="path-28" points="178.61904 24.9583588 177.515269 22.9715717 175.076205 21.643278 174.308412 23.3008184 174.308412 25.9722125 176.463726 27.9013881 176.463726 25.9722125"></polygon>
        <polygon id="path-29" points="180.282234 21.1355435 180.282234 18.6200234 178.491433 18.0379863 178.491433 20.2212984"></polygon>
        <polygon id="path-30" points="178.88556 31.1723181 178.188839 30.0125513 177.165832 30.5924347 178.188839 31.9228821"></polygon>
        <polygon id="path-31" points="182.455854 33.7088368 182.455854 32.1070233 181.453307 32.9079301"></polygon>
        <polygon id="path-32" points="169.456667 35.2385013 172.536456 33.653379 172.536456 31.1152451 169.456667 30.2516119 165.708693 31.1152451 165.708693 32.7450566 167.295969 34.5929301"></polygon>
        <polygon id="path-33" points="158.247204 33.4024731 160.513971 30.4066782 161.486366 27.5201835 159.866785 26.1951203 157.341573 26.1951203 156.751998 27.5201835 153.424534 28.4155837 154.435157 30.4066782 156.751998 33.4024731"></polygon>
        <polygon id="path-34" points="150.221445 33.0724188 152.094625 32.1118692 151.158035 30.1450038 149.602257 30.1450038 147.911065 29.5769657 147.911065 32.1118692"></polygon>
        <polygon id="path-35" points="153.160167 39.4866721 151.146997 39.4866721 148.971761 40.9996454 149.62164 42.9315132 151.146997 45.0857504 148.971761 45.946153 148.971761 47.508123 150.177294 48.2888388 152.105393 48.2888388 155.705301 45.0857504 154.163252 40.9996454"></polygon>
        <polygon id="path-36" points="165.785688 37.6151079 163.628758 35.6530883 160.603888 36.6340981 160.603888 40.1193211 163.194788 42.3704747 169.485742 42.3704747 169.485742 38.4060537"></polygon>
        <polygon id="path-37" points="175.281884 36.7993945 177.299361 38.9315562 176.290622 41.3442372 175.281884 42.8959772 173.18472 41.3442372 171.7832 37.9220099 173.18472 36.7993945"></polygon>
        <polygon id="path-38" points="179.236075 45.7765492 180.80289 43.3633298 179.236075 43.3633298 177.684873 44.5699395 178.466666 45.7765492"></polygon>
        <polygon id="path-39" points="176.000681 49.9897224 175.030439 47.5355827 173.169105 48.7626525 173.169105 50.9395035 174.584893 51.5990738"></polygon>
        <polygon id="path-40" points="171.629211 52.1741113 171.629211 54.2858129 172.474537 54.2858129"></polygon>
        <polygon id="path-41" points="162.347307 48.6092015 160.045542 48.6092015 160.045542 51.7697544 162.347307 52.8239899 163.979273 52.8239899 163.979273 49.8039659"></polygon>
        <polygon id="path-42" points="220.164427 33.0783415 218.435545 33.0783415 216.913419 33.0783415 217.750669 34.6505416 219.348175 35.4344879 220.876763 35.4344879"></polygon>
        <polyline id="path-43" points="226.685288 27.0679067 225.729046 28.2664401 226.685288 29.2576799 228.665614 29.2576799 228.665614 27.0679067 227.19733 27.0679067"></polyline>
        <polygon id="path-44" points="238.070278 25.8209152 236.456619 25.8209152 236.456619 27.5912555 238.070278 27.5912555"></polygon>
        <polygon id="path-45" points="234.324458 31.0118675 232.176143 31.0118675 232.176143 33.0880331 234.324458 34.1573445 236.458773 34.1573445 235.614523 32.016568"></polygon>
        <polygon id="path-46" points="241.116147 32.9087377 241.116147 34.8502971 242.231224 34.8502971"></polygon>
        <polygon id="path-47" points="238.550553 46.3758159 236.689757 47.6809573 238.550553 48.6824273"></polygon>
        <polygon id="path-48" points="229.821612 39.6180477 227.733601 41.4131556 228.777607 42.9255905 229.821612 41.4131556"></polygon>
        <path d="M223.004617,47.8198709 L223.004617,45.3183498 L221.149744,45.3183498 C221.149744,46.2437224 221.149744,46.8919857 221.149744,47.2631398 C221.149744,47.6342939 221.45889,48.2069983 222.077181,48.981253 L223.004617,47.8198709 Z" id="path-49"></path>
    </defs>
    <g id="Page-1" stroke="none" stroke-width="1" fill="none" fill-rule="evenodd">
        <g id="Artboard-2">
            <g id="Path-52">
                <use fill="#D8D8D8" xlink:href="#path-2"></use>
                <use stroke="#DDDDDD" stroke-width="1" fill="url(#linearGradient-1)" xlink:href="#path-2"></use>
            </g>
            <g id="Path-53">
                <use fill="#D8D8D8" xlink:href="#path-3"></use>
                <use stroke="#DDDDDD" stroke-width="1" fill="url(#linearGradient-1)" xlink:href="#path-3"></use>
            </g>
            <g id="Path-54">
                <use fill="#D8D8D8" xlink:href="#path-4"></use>
                <use stroke="#DDDDDD" stroke-width="1" fill="url(#linearGradient-1)" xlink:href="#path-4"></use>
            </g>
            <g id="Path-55">
                <use fill="#D8D8D8" xlink:href="#path-5"></use>
                <use stroke="#DDDDDD" stroke-width="1" fill="url(#linearGradient-1)" xlink:href="#path-5"></use>
            </g>
            <g id="Path-56">
                <use fill="#D8D8D8" xlink:href="#path-6"></use>
                <use stroke="#DDDDDD" stroke-width="1" fill="url(#linearGradient-1)" xlink:href="#path-6"></use>
            </g>
            <g id="Path-57">
                <use fill="#D8D8D8" xlink:href="#path-7"></use>
                <use stroke="#DDDDDD" stroke-width="1" fill="url(#linearGradient-1)" xlink:href="#path-7"></use>
            </g>
            <g id="Path-58">
                <use fill="#D8D8D8" xlink:href="#path-8"></use>
                <use stroke="#DDDDDD" stroke-width="1" fill="url(#linearGradient-1)" xlink:href="#path-8"></use>
            </g>
            <g id="Path-59">
                <use fill="#D8D8D8" xlink:href="#path-9"></use>
                <use stroke="#DDDDDD" stroke-width="1" fill="url(#linearGradient-1)" xlink:href="#path-9"></use>
            </g>
            <g id="Path-60">
                <use fill="#D8D8D8" xlink:href="#path-10"></use>
                <use stroke="#DDDDDD" stroke-width="1" fill="url(#linearGradient-1)" xlink:href="#path-10"></use>
            </g>
            <g id="Path-61">
                <use fill="#D8D8D8" xlink:href="#path-11"></use>
                <use stroke="#DDDDDD" stroke-width="1" fill="url(#linearGradient-1)" xlink:href="#path-11"></use>
            </g>
            <g id="Path-62">
                <use fill="#D8D8D8" xlink:href="#path-12"></use>
                <use stroke="#DDDDDD" stroke-width="1" fill="url(#linearGradient-1)" xlink:href="#path-12"></use>
            </g>
            <g id="Path-63">
                <use fill="#D8D8D8" xlink:href="#path-13"></use>
                <use stroke="#DDDDDD" stroke-width="1" fill="url(#linearGradient-1)" xlink:href="#path-13"></use>
            </g>
            <g id="Path-64">
                <use fill="#D8D8D8" xlink:href="#path-14"></use>
                <use stroke="#DDDDDD" stroke-width="1" fill="url(#linearGradient-1)" xlink:href="#path-14"></use>
            </g>
            <g id="Path-65">
                <use fill="#D8D8D8" xlink:href="#path-15"></use>
                <use stroke="#DDDDDD" stroke-width="1" fill="url(#linearGradient-1)" xlink:href="#path-15"></use>
            </g>
            <g id="Path-66">
                <use fill="#D8D8D8" xlink:href="#path-16"></use>
                <use stroke="#DDDDDD" stroke-width="1" fill="url(#linearGradient-1)" xlink:href="#path-16"></use>
            </g>
            <g id="Path-67">
                <use fill="#D8D8D8" xlink:href="#path-17"></use>
                <use stroke="#DDDDDD" stroke-width="1" fill="url(#linearGradient-1)" xlink:href="#path-17"></use>
            </g>
            <g id="Path-68">
                <use fill="#D8D8D8" xlink:href="#path-18"></use>
                <use stroke="#DDDDDD" stroke-width="1" fill="url(#linearGradient-1)" xlink:href="#path-18"></use>
            </g>
            <g id="Path-69">
                <use fill="#D8D8D8" xlink:href="#path-19"></use>
                <use stroke="#DDDDDD" stroke-width="1" fill="url(#linearGradient-1)" xlink:href="#path-19"></use>
            </g>
            <g id="Path-70">
                <use fill="#D8D8D8" xlink:href="#path-20"></use>
                <use stroke="#DDDDDD" stroke-width="1" fill="url(#linearGradient-1)" xlink:href="#path-20"></use>
            </g>
            <g id="Path-71">
                <use fill="#D8D8D8" xlink:href="#path-21"></use>
                <use stroke="#DDDDDD" stroke-width="1" fill="url(#linearGradient-1)" xlink:href="#path-21"></use>
            </g>
            <g id="Path-72">
                <use fill="#D8D8D8" xlink:href="#path-22"></use>
                <use stroke="#DDDDDD" stroke-width="1" fill="url(#linearGradient-1)" xlink:href="#path-22"></use>
            </g>
            <g id="Path-73">
                <use fill="#D8D8D8" xlink:href="#path-23"></use>
                <use stroke="#DDDDDD" stroke-width="1" fill="url(#linearGradient-1)" xlink:href="#path-23"></use>
            </g>
            <g id="Path-74">
                <use fill="#D8D8D8" xlink:href="#path-24"></use>
                <use stroke="#DDDDDD" stroke-width="1" fill="url(#linearGradient-1)" xlink:href="#path-24"></use>
            </g>
            <g id="Path-75">
                <use fill="#D8D8D8" xlink:href="#path-25"></use>
                <use stroke="#DDDDDD" stroke-width="1" fill="url(#linearGradient-1)" xlink:href="#path-25"></use>
            </g>
            <g id="Path-76">
                <use fill="#D8D8D8" xlink:href="#path-26"></use>
                <use stroke="#DDDDDD" stroke-width="1" fill="url(#linearGradient-1)" xlink:href="#path-26"></use>
            </g>
            <g id="Path-77">
                <use fill="#D8D8D8" xlink:href="#path-27"></use>
                <use stroke="#DDDDDD" stroke-width="1" fill="url(#linearGradient-1)" xlink:href="#path-27"></use>
            </g>
            <g id="Path-78">
                <use fill="#D8D8D8" xlink:href="#path-28"></use>
                <use stroke="#DDDDDD" stroke-width="1" fill="url(#linearGradient-1)" xlink:href="#path-28"></use>
            </g>
            <g id="Path-79">
                <use fill="#D8D8D8" xlink:href="#path-29"></use>
                <use stroke="#DDDDDD" stroke-width="1" fill="url(#linearGradient-1)" xlink:href="#path-29"></use>
            </g>
            <g id="Path-80">
                <use fill="#D8D8D8" xlink:href="#path-30"></use>
                <use stroke="#DDDDDD" stroke-width="1" fill="url(#linearGradient-1)" xlink:href="#path-30"></use>
            </g>
            <g id="Path-81">
                <use fill="#D8D8D8" xlink:href="#path-31"></use>
                <use stroke="#DDDDDD" stroke-width="1" fill="url(#linearGradient-1)" xlink:href="#path-31"></use>
            </g>
            <g id="Path-82">
                <use fill="#D8D8D8" xlink:href="#path-32"></use>
                <use stroke="#DDDDDD" stroke-width="1" fill="url(#linearGradient-1)" xlink:href="#path-32"></use>
            </g>
            <g id="Path-83">
                <use fill="#D8D8D8" xlink:href="#path-33"></use>
                <use stroke="#DDDDDD" stroke-width="1" fill="url(#linearGradient-1)" xlink:href="#path-33"></use>
            </g>
            <g id="Path-84">
                <use fill="#D8D8D8" xlink:href="#path-34"></use>
                <use stroke="#DDDDDD" stroke-width="1" fill="url(#linearGradient-1)" xlink:href="#path-34"></use>
            </g>
            <g id="Path-85">
                <use fill="#D8D8D8" xlink:href="#path-35"></use>
                <use stroke="#DDDDDD" stroke-width="1" fill="url(#linearGradient-1)" xlink:href="#path-35"></use>
            </g>
            <g id="Path-86">
                <use fill="#D8D8D8" xlink:href="#path-36"></use>
                <use stroke="#DDDDDD" stroke-width="1" fill="url(#linearGradient-1)" xlink:href="#path-36"></use>
            </g>
            <g id="Path-87">
                <use fill="#D8D8D8" xlink:href="#path-37"></use>
                <use stroke="#DDDDDD" stroke-width="1" fill="url(#linearGradient-1)" xlink:href="#path-37"></use>
            </g>
            <g id="Path-88">
                <use fill="#D8D8D8" xlink:href="#path-38"></use>
                <use stroke="#DDDDDD" stroke-width="1" fill="url(#linearGradient-1)" xlink:href="#path-38"></use>
            </g>
            <g id="Path-89">
                <use fill="#D8D8D8" xlink:href="#path-39"></use>
                <use stroke="#DDDDDD" stroke-width="1" fill="url(#linearGradient-1)" xlink:href="#path-39"></use>
            </g>
            <g id="Path-90">
                <use fill="#D8D8D8" xlink:href="#path-40"></use>
                <use stroke="#DDDDDD" stroke-width="1" fill="url(#linearGradient-1)" xlink:href="#path-40"></use>
            </g>
            <g id="Path-91">
                <use fill="#D8D8D8" xlink:href="#path-41"></use>
                <use stroke="#DDDDDD" stroke-width="1" fill="url(#linearGradient-1)" xlink:href="#path-41"></use>
            </g>
            <g id="Path-92">
                <use fill="#D8D8D8" xlink:href="#path-42"></use>
                <use stroke="#DDDDDD" stroke-width="1" fill="url(#linearGradient-1)" xlink:href="#path-42"></use>
            </g>
            <g id="Path-93">
                <use fill="#D8D8D8" xlink:href="#path-43"></use>
                <use stroke="#DDDDDD" stroke-width="1" fill="url(#linearGradient-1)" xlink:href="#path-43"></use>
            </g>
            <g id="Path-94">
                <use fill="#D8D8D8" xlink:href="#path-44"></use>
                <use stroke="#DDDDDD" stroke-width="1" fill="url(#linearGradient-1)" xlink:href="#path-44"></use>
            </g>
            <g id="Path-95">
                <use fill="#D8D8D8" xlink:href="#path-45"></use>
                <use stroke="#DDDDDD" stroke-width="1" fill="url(#linearGradient-1)" xlink:href="#path-45"></use>
            </g>
            <g id="Path-96">
                <use fill="#D8D8D8" xlink:href="#path-46"></use>
                <use stroke="#DDDDDD" stroke-width="1" fill="url(#linearGradient-1)" xlink:href="#path-46"></use>
            </g>
            <g id="Path-97">
                <use fill="#D8D8D8" xlink:href="#path-47"></use>
                <use stroke="#DDDDDD" stroke-width="1" fill="url(#linearGradient-1)" xlink:href="#path-47"></use>
            </g>
            <g id="Path-98">
                <use fill="#D8D8D8" xlink:href="#path-48"></use>
                <use stroke="#DDDDDD" stroke-width="1" fill="url(#linearGradient-1)" xlink:href="#path-48"></use>
            </g>
            <g id="Path-99">
                <use fill="#D8D8D8" xlink:href="#path-49"></use>
                <use stroke="#DDDDDD" stroke-width="1" fill="url(#linearGradient-1)" xlink:href="#path-49"></use>
            </g>
        </g>
    </g>
</svg>