<?xml version="1.0" encoding="UTF-8"?>
<svg width="110px" height="66px" viewBox="0 0 110 66" version="1.1" xmlns="http://www.w3.org/2000/svg" xmlns:xlink="http://www.w3.org/1999/xlink">
    <!-- Generator: Sketch 48.2 (47327) - http://www.bohemiancoding.com/sketch -->
    <title>moovel_supersign_white_rgb</title>
    <desc>Created with Sketch.</desc>
    <defs></defs>
    <g id="Layout" stroke="none" stroke-width="1" fill="none" fill-rule="evenodd" transform="translate(-4766.000000, -1416.000000)">
        <path d="M4789.98334,1444.17714 L4844.16647,1444.17714 L4836.71835,1436.61317 C4834.77119,1434.68897 4834.77119,1431.36655 4836.71835,1429.44236 C4838.66393,1427.51921 4841.82029,1427.51921 4843.76587,1429.44236 L4859.54082,1445.02701 C4861.48639,1446.9512 4861.48639,1450.06376 4859.54082,1451.98691 C4859.48494,1452.04107 4843.76587,1467.56167 4843.76587,1467.56167 C4841.82029,1469.48482 4838.66498,1469.47649 4836.71835,1467.55438 C4834.77119,1465.63175 4834.77119,1462.49836 4836.71835,1460.57521 L4843.79855,1453.55074 L4789.98334,1453.55074 C4787.23075,1453.55074 4785,1451.58228 4785,1448.86394 C4785,1446.1456 4787.23075,1444.17714 4789.98334,1444.17714 Z M4799.00016,1482 C4807.45457,1482 4815.16081,1478.81846 4821.00078,1473.59057 C4826.83867,1478.81846 4834.54647,1482 4843.00036,1482 C4861.22651,1482 4876,1467.22594 4876,1449.00026 C4876,1430.77354 4861.22651,1416 4843.00036,1416 C4834.54647,1416 4826.83867,1419.18257 4821.00078,1424.40891 C4815.16081,1419.18257 4807.45457,1416 4799.00016,1416 C4780.77505,1416 4766,1430.77354 4766,1449.00026 C4766,1467.22594 4780.77505,1482 4799.00016,1482 Z" id="moovel_supersign_white_rgb" fill="#00FFFF"></path>
    </g>
</svg>