<?xml version="1.0" encoding="UTF-8"?>
<svg width="110px" height="66px" viewBox="0 0 110 66" version="1.1" xmlns="http://www.w3.org/2000/svg" xmlns:xlink="http://www.w3.org/1999/xlink">
    <!-- Generator: Sketch 47.1 (45422) - http://www.bohemiancoding.com/sketch -->
    <title>moovel_supersign_white_rgb</title>
    <desc>Created with Sketch.</desc>
    <defs></defs>
    <g id="Page-1" stroke="none" stroke-width="1" fill="none" fill-rule="evenodd">
        <g id="Layout" transform="translate(-5795.000000, -805.000000)" fill="#FFFFFF">
            <path d="M5818.98334,833.17714 L5873.16647,833.17714 L5865.71835,825.613166 C5863.77119,823.688975 5863.77119,820.366554 5865.71835,818.442363 C5867.66393,816.519212 5870.82029,816.519212 5872.76587,818.442363 L5888.54082,834.027013 C5890.48639,835.951205 5890.48639,839.063761 5888.54082,840.986911 C5888.48494,841.04107 5872.76587,856.561667 5872.76587,856.561667 C5870.82029,858.484817 5867.66498,858.476485 5865.71835,856.554377 C5863.77119,854.631747 5863.77119,851.498361 5865.71835,849.575211 L5872.79855,842.55074 L5818.98334,842.55074 C5816.23075,842.55074 5814,840.582284 5814,837.86394 C5814,835.145596 5816.23075,833.17714 5818.98334,833.17714 Z M5828.00016,871 C5836.45457,871 5844.16081,867.81846 5850.00078,862.590574 C5855.83867,867.81846 5863.54647,871 5872.00036,871 C5890.22651,871 5905,856.225943 5905,838.000259 C5905,819.77354 5890.22651,805 5872.00036,805 C5863.54647,805 5855.83867,808.182574 5850.00078,813.408909 C5844.16081,808.182574 5836.45457,805 5828.00016,805 C5809.77505,805 5795,819.77354 5795,838.000259 C5795,856.225943 5809.77505,871 5828.00016,871 L5828.00016,871 Z" id="moovel_supersign_white_rgb"></path>
        </g>
    </g>
</svg>